<svg width="16" height="16" viewBox="0 0 16 16" fill="none" xmlns="http://www.w3.org/2000/svg">
<g opacity="0.25">
<path d="M13.5 3.5H12.5V4.5H13.5V13.5H4.5V12.5H3.5V13.5C3.5 14.1 3.9 14.5 4.5 14.5H13.5C14.1 14.5 14.5 14.1 14.5 13.5V4.5C14.5 3.9 14.1 3.5 13.5 3.5Z" fill="black"/>
<path d="M10.5 5.5H3.5V10.5H10.5V5.5ZM9.5 9.5H4.5V8.5H9.5V9.5ZM9.5 7.5H4.5V6.5H9.5V7.5Z" fill="black"/>
</g>
<path fill-rule="evenodd" clip-rule="evenodd" d="M11.5 1.5H2.5C1.9 1.5 1.5 1.9 1.5 2.5V11.5C1.5 12.1 1.9 12.5 2.5 12.5H11.5C12.1 12.5 12.5 12.1 12.5 11.5V2.5C12.5 1.9 12.1 1.5 11.5 1.5ZM11.5 11.5H2.5V4.5H11.5V11.5ZM11.5 3.5H2.5V2.5H11.5V3.5Z" fill="black"/>
</svg>
