<svg width="16" height="16" viewBox="0 0 16 16" fill="none" xmlns="http://www.w3.org/2000/svg">
<path fill-rule="evenodd" clip-rule="evenodd" d="M3.9975 0C3.44521 0 2.9975 0.447708 2.9975 1V2C1.89293 2 0.997498 2.89543 0.997498 4V14C0.997498 15.1046 1.89293 16 2.9975 16H12.9975C14.1021 16 14.9975 15.1046 14.9975 14V4C14.9975 2.89543 14.1021 2 12.9975 2V1C12.9975 0.447708 12.5498 0 11.9975 0C11.4452 0 10.9975 0.447708 10.9975 1V2H4.9975V1C4.9975 0.447708 4.54979 0 3.9975 0ZM4.9975 14V12H2.9975V14H4.9975ZM4.9975 8V10H2.9975V8H4.9975ZM8.9975 12H6.9975V14H8.9975V12ZM6.9975 8H8.9975V10H6.9975V8ZM12.9975 14V12H10.9975V14H12.9975ZM12.9975 8V10H10.9975V8H12.9975ZM3.9975 4C3.44521 4 2.9975 4.44771 2.9975 5V6H12.9975V5C12.9975 4.44771 12.5498 4 11.9975 4H3.9975Z" fill="black"/>
</svg>
