<svg width="16" height="16" viewBox="0 0 16 16" fill="none" xmlns="http://www.w3.org/2000/svg">
<path d="M14.0024 8.00001H12.0024H10.0024L11.6024 6.40001C11.0024 5.00001 9.60244 4.00001 8.00244 4.00001C7.30244 4.00001 6.60244 4.20001 6.00244 4.60001L11.4024 10H13.6024C13.4024 10.5 13.1024 11 12.8024 11.5L14.6024 13.3L13.2024 14.8L11.3024 12.9C10.5024 13.6 9.30244 14 8.00244 14C5.80244 14 3.90244 12.8 2.90244 11.1L1.00244 13V8.00001H2.00244H4.00244H6.00244L4.40244 9.60001C5.00244 11 6.40244 12 8.00244 12C8.70244 12 9.40244 11.8 10.0024 11.4L4.60244 6.00001H2.40244C2.60244 5.50001 2.90244 5.00001 3.20244 4.50001L1.30244 2.70001L2.70244 1.20001L4.60244 3.10001C5.50244 2.40001 6.70244 2.00001 8.00244 2.00001C10.2024 2.00001 12.1024 3.20001 13.1024 4.90001L15.0024 3.00001V8.00001H14.0024Z" fill="black"/>
</svg>
