<svg width="16" height="16" viewBox="0 0 16 16" fill="none" xmlns="http://www.w3.org/2000/svg">
<path fill-rule="evenodd" clip-rule="evenodd" d="M15.0024 8H14.0024H12.0024H10.0024L11.6024 6.4C11.0024 5 9.60244 4 8.00244 4C6.50244 4 5.20244 4.8 4.60244 6H2.40244C3.20244 3.7 5.40244 2 8.00244 2C10.2024 2 12.1024 3.2 13.1024 4.9L15.0024 3V8ZM6.00244 8L4.40244 9.6C5.00244 11 6.40244 12 8.00244 12C9.50244 12 10.8024 11.2 11.4024 10H13.6024C12.8024 12.3 10.6024 14 8.00244 14C5.80244 14 3.90244 12.8 2.90244 11.1L1.00244 13V8H2.00244H4.00244H6.00244Z" fill="black"/>
</svg>
