<svg width="16" height="16" viewBox="0 0 16 16" fill="none" xmlns="http://www.w3.org/2000/svg">
<g clip-path="url(#clip0_1_88)">
<path d="M11.558 8.04403L13.0691 6.54717C12.4469 4.34591 10.4024 2.76101 8.00244 2.76101C7.46911 2.76101 6.93577 2.84906 6.49133 3.02516L5.06911 1.61635C5.958 1.26415 6.93577 1 8.00244 1C10.9358 1 13.3358 2.76101 14.4913 5.13836L16.0024 3.64151V8.04403H11.558ZM13.6024 14.8239L1.158 2.49686L2.40244 1.26415L14.8469 13.5912L13.6024 14.8239ZM3.20244 10.1572C4.00244 12.0063 5.86911 13.327 8.00244 13.327C8.53577 13.327 9.06911 13.239 9.51355 13.0629L10.8469 14.3836C9.958 14.8239 8.98022 15 7.91355 15C5.24689 15 2.93577 13.5031 1.78022 11.3899L0.00244141 13.327V8.92453H4.44689L3.20244 10.1572Z" fill="black"/>
</g>
<defs>
<clipPath id="clip0_1_88">
<rect width="16" height="16" fill="white"/>
</clipPath>
</defs>
</svg>
