<svg width="16" height="16" viewBox="0 0 16 16" fill="none" xmlns="http://www.w3.org/2000/svg">
<path d="M8.00024 8C9.10481 8 10.0002 7.10457 10.0002 6C10.0002 4.89543 9.10481 4 8.00024 4C6.89567 4 6.00024 4.89543 6.00024 6C6.00024 7.10457 6.89567 8 8.00024 8Z" fill="black"/>
<path fill-rule="evenodd" clip-rule="evenodd" d="M14.0002 6.56C14.0002 2.576 11.1502 0 8.00024 0C4.85024 0 2.00024 2.576 2.00024 6.56C2.00024 9.216 4.00274 12.36 8.00024 16C11.9977 12.36 14.0002 9.216 14.0002 6.56ZM12.0002 6.51C12.0002 3.771 10.1002 2 8.00024 2C5.90024 2 4.00024 3.771 4.00024 6.51C4.00024 8.336 5.33524 10.4975 8.00024 13C10.6652 10.4975 12.0002 8.336 12.0002 6.51Z" fill="black"/>
</svg>
