<svg width="16" height="16" viewBox="0 0 16 16" fill="none" xmlns="http://www.w3.org/2000/svg">
<g clip-path="url(#clip0_1_73)">
<path d="M12 10H9V13H12V10Z" fill="black"/>
<path fill-rule="evenodd" clip-rule="evenodd" d="M3 1C3 0.447708 3.44771 0 4 0C4.55229 0 5 0.447708 5 1V2H11V1C11 0.447708 11.4477 0 12 0C12.5523 0 13 0.447708 13 1V2C14.1046 2 15 2.89543 15 4V14C15 15.1046 14.1046 16 13 16H3C1.89543 16 1 15.1046 1 14V4C1 2.89543 1.89543 2 3 2V1ZM13 14V8H3V14H13ZM3 5C3 4.44771 3.44771 4 4 4H12C12.5523 4 13 4.44771 13 5V6H3V5Z" fill="black"/>
</g>
<defs>
<clipPath id="clip0_1_73">
<rect width="16" height="16" fill="white"/>
</clipPath>
</defs>
</svg>
