<svg width="16" height="16" viewBox="0 0 16 16" fill="none" xmlns="http://www.w3.org/2000/svg">
<g clip-path="url(#clip0_1_106)">
<path d="M10.0024 5H2.00244V2H10.0024V5ZM8.00244 14C7.20679 14 6.44373 13.6839 5.88112 13.1213C5.31851 12.5587 5.00244 11.7956 5.00244 11C5.00244 10.2044 5.31851 9.44129 5.88112 8.87868C6.44373 8.31607 7.20679 8 8.00244 8C8.79809 8 9.56115 8.31607 10.1238 8.87868C10.6864 9.44129 11.0024 10.2044 11.0024 11C11.0024 11.7956 10.6864 12.5587 10.1238 13.1213C9.56115 13.6839 8.79809 14 8.00244 14V14ZM12.0024 0H2.00244C1.47201 0 0.963301 0.210714 0.588228 0.585786C0.213155 0.960859 0.00244141 1.46957 0.00244141 2V14C0.00244141 14.5304 0.213155 15.0391 0.588228 15.4142C0.963301 15.7893 1.47201 16 2.00244 16H14.0024C14.5329 16 15.0416 15.7893 15.4167 15.4142C15.7917 15.0391 16.0024 14.5304 16.0024 14V4L12.0024 0Z" fill="black"/>
</g>
<defs>
<clipPath id="clip0_1_106">
<rect width="16" height="16" fill="white"/>
</clipPath>
</defs>
</svg>
