<svg width="16" height="16" viewBox="0 0 16 16" fill="none" xmlns="http://www.w3.org/2000/svg">
<g clip-path="url(#clip0_1_20)">
<path fill-rule="evenodd" clip-rule="evenodd" d="M10.5084 11.9274C9.52429 12.6282 8.32043 13.0403 7.02017 13.0403C3.69531 13.0403 1 10.345 1 7.02017C1 3.69531 3.69531 1 7.02017 1C10.345 1 13.0403 3.69531 13.0403 7.02017C13.0403 8.32037 12.6282 9.52429 11.9274 10.5084L15.7061 14.2871C16.098 14.679 16.098 15.3143 15.7061 15.7061C15.3143 16.098 14.679 16.098 14.2871 15.7061L10.5084 11.9274ZM11.0336 7.02017C11.0336 9.23677 9.23671 11.0336 7.02017 11.0336C4.80364 11.0336 3.00672 9.23677 3.00672 7.02017C3.00672 4.80358 4.80364 3.00672 7.02017 3.00672C9.23671 3.00672 11.0336 4.80358 11.0336 7.02017Z" fill="black"/>
</g>
<defs>
<clipPath id="clip0_1_20">
<rect width="16" height="16" fill="white"/>
</clipPath>
</defs>
</svg>
