<svg width="16" height="16" viewBox="0 0 16 16" fill="none" xmlns="http://www.w3.org/2000/svg">
<g clip-path="url(#clip0_1_82)">
<path fill-rule="evenodd" clip-rule="evenodd" d="M8.00244 16C12.4207 16 16.0024 12.4183 16.0024 8C16.0024 3.58172 12.4207 0 8.00244 0C3.58416 0 0.00244141 3.58172 0.00244141 8C0.00244141 12.4183 3.58416 16 8.00244 16ZM5.70955 4.29289C5.31902 3.90237 4.68586 3.90237 4.29533 4.29289C3.90481 4.68342 3.90481 5.31658 4.29533 5.70711L6.58823 8L4.29533 10.2929C3.90481 10.6834 3.90481 11.3166 4.29533 11.7071C4.68586 12.0976 5.31902 12.0976 5.70955 11.7071L8.00244 9.41421L10.2953 11.7071C10.6859 12.0976 11.319 12.0976 11.7095 11.7071C12.1001 11.3166 12.1001 10.6834 11.7095 10.2929L9.41665 8L11.7095 5.70711C12.1001 5.31658 12.1001 4.68342 11.7095 4.29289C11.319 3.90237 10.6859 3.90237 10.2953 4.29289L8.00244 6.58579L5.70955 4.29289Z" fill="black"/>
</g>
<defs>
<clipPath id="clip0_1_82">
<rect width="16" height="16" fill="white"/>
</clipPath>
</defs>
</svg>
